<mxfile host="app.diagrams.net" modified="2024-05-08T18:15:50.200Z" agent="Mozilla/5.0 (Windows NT 10.0; Win64; x64) AppleWebKit/537.36 (KHTML, like Gecko) Chrome/124.0.0.0 Safari/537.36 Edg/124.0.0.0" etag="UIS8mnT54YD1KwvHxJ0B" version="24.3.1" type="github">
  <diagram id="C5RBs43oDa-KdzZeNtuy" name="Page-1">
    <mxGraphModel dx="1789" dy="1007" grid="1" gridSize="10" guides="1" tooltips="1" connect="1" arrows="1" fold="1" page="1" pageScale="1" pageWidth="827" pageHeight="1169" math="0" shadow="0">
      <root>
        <mxCell id="WIyWlLk6GJQsqaUBKTNV-0" />
        <mxCell id="WIyWlLk6GJQsqaUBKTNV-1" parent="WIyWlLk6GJQsqaUBKTNV-0" />
        <mxCell id="PRaoMw5m5jJZB09oyUVn-8" style="edgeStyle=orthogonalEdgeStyle;rounded=0;orthogonalLoop=1;jettySize=auto;html=1;exitX=0.5;exitY=1;exitDx=0;exitDy=0;entryX=0.5;entryY=0;entryDx=0;entryDy=0;" edge="1" parent="WIyWlLk6GJQsqaUBKTNV-1" source="WIyWlLk6GJQsqaUBKTNV-3" target="PRaoMw5m5jJZB09oyUVn-9">
          <mxGeometry relative="1" as="geometry">
            <mxPoint x="220" y="140" as="targetPoint" />
          </mxGeometry>
        </mxCell>
        <mxCell id="WIyWlLk6GJQsqaUBKTNV-3" value="Öffne den Ordner mit den Dateien" style="rounded=1;whiteSpace=wrap;html=1;fontSize=12;glass=0;strokeWidth=1;shadow=0;" parent="WIyWlLk6GJQsqaUBKTNV-1" vertex="1">
          <mxGeometry x="80" y="70" width="280" height="40" as="geometry" />
        </mxCell>
        <mxCell id="WIyWlLk6GJQsqaUBKTNV-5" value="" style="edgeStyle=orthogonalEdgeStyle;rounded=0;html=1;jettySize=auto;orthogonalLoop=1;fontSize=11;endArrow=block;endFill=0;endSize=8;strokeWidth=1;shadow=0;labelBackgroundColor=none;" parent="WIyWlLk6GJQsqaUBKTNV-1" source="WIyWlLk6GJQsqaUBKTNV-6" target="WIyWlLk6GJQsqaUBKTNV-7" edge="1">
          <mxGeometry x="0.0127" y="10" relative="1" as="geometry">
            <mxPoint as="offset" />
          </mxGeometry>
        </mxCell>
        <mxCell id="PRaoMw5m5jJZB09oyUVn-28" style="edgeStyle=orthogonalEdgeStyle;rounded=0;orthogonalLoop=1;jettySize=auto;html=1;entryX=0;entryY=0.5;entryDx=0;entryDy=0;" edge="1" parent="WIyWlLk6GJQsqaUBKTNV-1" source="WIyWlLk6GJQsqaUBKTNV-6" target="PRaoMw5m5jJZB09oyUVn-27">
          <mxGeometry relative="1" as="geometry">
            <mxPoint x="110" y="900" as="targetPoint" />
            <Array as="points">
              <mxPoint x="130" y="540" />
              <mxPoint x="130" y="735" />
              <mxPoint x="129" y="735" />
              <mxPoint x="129" y="890" />
            </Array>
          </mxGeometry>
        </mxCell>
        <mxCell id="WIyWlLk6GJQsqaUBKTNV-6" value="Für jedes Objekt in der Liste" style="rhombus;whiteSpace=wrap;html=1;shadow=0;fontFamily=Helvetica;fontSize=12;align=center;strokeWidth=1;spacing=6;spacingTop=-4;" parent="WIyWlLk6GJQsqaUBKTNV-1" vertex="1">
          <mxGeometry x="151.25" y="470" width="145" height="140" as="geometry" />
        </mxCell>
        <mxCell id="PRaoMw5m5jJZB09oyUVn-3" style="edgeStyle=orthogonalEdgeStyle;rounded=0;orthogonalLoop=1;jettySize=auto;html=1;exitX=0.5;exitY=1;exitDx=0;exitDy=0;entryX=0.5;entryY=0;entryDx=0;entryDy=0;" edge="1" parent="WIyWlLk6GJQsqaUBKTNV-1" source="WIyWlLk6GJQsqaUBKTNV-7" target="PRaoMw5m5jJZB09oyUVn-2">
          <mxGeometry relative="1" as="geometry" />
        </mxCell>
        <mxCell id="WIyWlLk6GJQsqaUBKTNV-7" value="Korrigiere die Spaltenname des Datenobjektes" style="rounded=1;whiteSpace=wrap;html=1;fontSize=12;glass=0;strokeWidth=1;shadow=0;" parent="WIyWlLk6GJQsqaUBKTNV-1" vertex="1">
          <mxGeometry x="320" y="520" width="290" height="40" as="geometry" />
        </mxCell>
        <mxCell id="PRaoMw5m5jJZB09oyUVn-1" style="edgeStyle=orthogonalEdgeStyle;rounded=0;orthogonalLoop=1;jettySize=auto;html=1;exitX=0.5;exitY=1;exitDx=0;exitDy=0;entryX=0.5;entryY=0;entryDx=0;entryDy=0;" edge="1" parent="WIyWlLk6GJQsqaUBKTNV-1" source="PRaoMw5m5jJZB09oyUVn-0" target="WIyWlLk6GJQsqaUBKTNV-3">
          <mxGeometry relative="1" as="geometry" />
        </mxCell>
        <mxCell id="PRaoMw5m5jJZB09oyUVn-0" value="Lade Config Datei" style="rounded=1;whiteSpace=wrap;html=1;" vertex="1" parent="WIyWlLk6GJQsqaUBKTNV-1">
          <mxGeometry x="135" y="10" width="170" height="30" as="geometry" />
        </mxCell>
        <mxCell id="PRaoMw5m5jJZB09oyUVn-6" style="edgeStyle=orthogonalEdgeStyle;rounded=0;orthogonalLoop=1;jettySize=auto;html=1;exitX=0.5;exitY=1;exitDx=0;exitDy=0;entryX=0.5;entryY=0;entryDx=0;entryDy=0;" edge="1" parent="WIyWlLk6GJQsqaUBKTNV-1" source="PRaoMw5m5jJZB09oyUVn-2" target="PRaoMw5m5jJZB09oyUVn-5">
          <mxGeometry relative="1" as="geometry" />
        </mxCell>
        <mxCell id="PRaoMw5m5jJZB09oyUVn-2" value="Suche das erste Wort um den Datensatz einzugrenzen" style="rounded=1;whiteSpace=wrap;html=1;fontSize=12;glass=0;strokeWidth=1;shadow=0;" vertex="1" parent="WIyWlLk6GJQsqaUBKTNV-1">
          <mxGeometry x="320" y="585" width="290" height="40" as="geometry" />
        </mxCell>
        <mxCell id="PRaoMw5m5jJZB09oyUVn-24" style="edgeStyle=orthogonalEdgeStyle;rounded=0;orthogonalLoop=1;jettySize=auto;html=1;" edge="1" parent="WIyWlLk6GJQsqaUBKTNV-1" source="PRaoMw5m5jJZB09oyUVn-5" target="PRaoMw5m5jJZB09oyUVn-22">
          <mxGeometry relative="1" as="geometry" />
        </mxCell>
        <mxCell id="PRaoMw5m5jJZB09oyUVn-5" value="Suche das zweite Wort um den Datensatz einzugrenzen" style="rounded=1;whiteSpace=wrap;html=1;fontSize=12;glass=0;strokeWidth=1;shadow=0;" vertex="1" parent="WIyWlLk6GJQsqaUBKTNV-1">
          <mxGeometry x="320" y="650" width="290" height="40" as="geometry" />
        </mxCell>
        <mxCell id="PRaoMw5m5jJZB09oyUVn-12" style="edgeStyle=orthogonalEdgeStyle;rounded=0;orthogonalLoop=1;jettySize=auto;html=1;entryX=0;entryY=0.5;entryDx=0;entryDy=0;" edge="1" parent="WIyWlLk6GJQsqaUBKTNV-1" source="PRaoMw5m5jJZB09oyUVn-9" target="PRaoMw5m5jJZB09oyUVn-11">
          <mxGeometry relative="1" as="geometry" />
        </mxCell>
        <mxCell id="PRaoMw5m5jJZB09oyUVn-20" style="edgeStyle=orthogonalEdgeStyle;rounded=0;orthogonalLoop=1;jettySize=auto;html=1;entryX=0.5;entryY=0;entryDx=0;entryDy=0;" edge="1" parent="WIyWlLk6GJQsqaUBKTNV-1" source="PRaoMw5m5jJZB09oyUVn-9" target="WIyWlLk6GJQsqaUBKTNV-6">
          <mxGeometry relative="1" as="geometry">
            <mxPoint x="150" y="430" as="targetPoint" />
            <Array as="points">
              <mxPoint x="120" y="200" />
              <mxPoint x="120" y="440" />
              <mxPoint x="224" y="440" />
            </Array>
          </mxGeometry>
        </mxCell>
        <mxCell id="PRaoMw5m5jJZB09oyUVn-9" value="Für jede Datei im Ordner" style="rhombus;whiteSpace=wrap;html=1;shadow=0;fontFamily=Helvetica;fontSize=12;align=center;strokeWidth=1;spacing=6;spacingTop=-4;" vertex="1" parent="WIyWlLk6GJQsqaUBKTNV-1">
          <mxGeometry x="147.5" y="130" width="152.5" height="140" as="geometry" />
        </mxCell>
        <mxCell id="PRaoMw5m5jJZB09oyUVn-14" style="edgeStyle=orthogonalEdgeStyle;rounded=0;orthogonalLoop=1;jettySize=auto;html=1;exitX=0.5;exitY=1;exitDx=0;exitDy=0;entryX=0.5;entryY=0;entryDx=0;entryDy=0;" edge="1" parent="WIyWlLk6GJQsqaUBKTNV-1" source="PRaoMw5m5jJZB09oyUVn-11" target="PRaoMw5m5jJZB09oyUVn-13">
          <mxGeometry relative="1" as="geometry" />
        </mxCell>
        <mxCell id="PRaoMw5m5jJZB09oyUVn-11" value="Lade das erste Excel Arbeitsblatt, das in der Config definiert ist, in dem sich die Daten befinden" style="rounded=1;whiteSpace=wrap;html=1;fontSize=12;glass=0;strokeWidth=1;shadow=0;" vertex="1" parent="WIyWlLk6GJQsqaUBKTNV-1">
          <mxGeometry x="330" y="180" width="290" height="40" as="geometry" />
        </mxCell>
        <mxCell id="PRaoMw5m5jJZB09oyUVn-16" style="edgeStyle=orthogonalEdgeStyle;rounded=0;orthogonalLoop=1;jettySize=auto;html=1;" edge="1" parent="WIyWlLk6GJQsqaUBKTNV-1" source="PRaoMw5m5jJZB09oyUVn-13" target="PRaoMw5m5jJZB09oyUVn-15">
          <mxGeometry relative="1" as="geometry" />
        </mxCell>
        <mxCell id="PRaoMw5m5jJZB09oyUVn-13" value="Lade das zweite Arbeitsblatt, das in der Config definiert ist, um das Datum zu extrahieren" style="rounded=1;whiteSpace=wrap;html=1;fontSize=12;glass=0;strokeWidth=1;shadow=0;" vertex="1" parent="WIyWlLk6GJQsqaUBKTNV-1">
          <mxGeometry x="330" y="250" width="290" height="30" as="geometry" />
        </mxCell>
        <mxCell id="PRaoMw5m5jJZB09oyUVn-18" style="edgeStyle=orthogonalEdgeStyle;rounded=0;orthogonalLoop=1;jettySize=auto;html=1;" edge="1" parent="WIyWlLk6GJQsqaUBKTNV-1" source="PRaoMw5m5jJZB09oyUVn-15" target="PRaoMw5m5jJZB09oyUVn-17">
          <mxGeometry relative="1" as="geometry" />
        </mxCell>
        <mxCell id="PRaoMw5m5jJZB09oyUVn-15" value="Suche das Datum im zweiten Arbeitsblatt" style="rounded=1;whiteSpace=wrap;html=1;fontSize=12;glass=0;strokeWidth=1;shadow=0;" vertex="1" parent="WIyWlLk6GJQsqaUBKTNV-1">
          <mxGeometry x="330" y="300" width="290" height="40" as="geometry" />
        </mxCell>
        <mxCell id="PRaoMw5m5jJZB09oyUVn-19" style="edgeStyle=orthogonalEdgeStyle;rounded=0;orthogonalLoop=1;jettySize=auto;html=1;entryX=0.5;entryY=1;entryDx=0;entryDy=0;" edge="1" parent="WIyWlLk6GJQsqaUBKTNV-1" source="PRaoMw5m5jJZB09oyUVn-17" target="PRaoMw5m5jJZB09oyUVn-9">
          <mxGeometry relative="1" as="geometry" />
        </mxCell>
        <mxCell id="PRaoMw5m5jJZB09oyUVn-17" value="Speichere das Datum des Excel Arbeitsblatts zusammen mit den Daten des ersten Arbeitsblattes in einem Dictionary Objekt" style="rounded=1;whiteSpace=wrap;html=1;fontSize=12;glass=0;strokeWidth=1;shadow=0;" vertex="1" parent="WIyWlLk6GJQsqaUBKTNV-1">
          <mxGeometry x="330" y="360" width="290" height="50" as="geometry" />
        </mxCell>
        <mxCell id="PRaoMw5m5jJZB09oyUVn-21" value="Rückgabe als Liste" style="text;html=1;align=center;verticalAlign=middle;whiteSpace=wrap;rounded=0;" vertex="1" parent="WIyWlLk6GJQsqaUBKTNV-1">
          <mxGeometry x="50" y="290" width="60" height="30" as="geometry" />
        </mxCell>
        <mxCell id="PRaoMw5m5jJZB09oyUVn-25" style="edgeStyle=orthogonalEdgeStyle;rounded=0;orthogonalLoop=1;jettySize=auto;html=1;entryX=0.5;entryY=0;entryDx=0;entryDy=0;" edge="1" parent="WIyWlLk6GJQsqaUBKTNV-1" source="PRaoMw5m5jJZB09oyUVn-22" target="PRaoMw5m5jJZB09oyUVn-23">
          <mxGeometry relative="1" as="geometry" />
        </mxCell>
        <mxCell id="PRaoMw5m5jJZB09oyUVn-22" value="Ersetze das vorhandene Datenobjekt, mit einem durch die Beiden Wörter eingegrenzten Datensatz" style="rounded=1;whiteSpace=wrap;html=1;" vertex="1" parent="WIyWlLk6GJQsqaUBKTNV-1">
          <mxGeometry x="320" y="710" width="290" height="60" as="geometry" />
        </mxCell>
        <mxCell id="PRaoMw5m5jJZB09oyUVn-26" style="edgeStyle=orthogonalEdgeStyle;rounded=0;orthogonalLoop=1;jettySize=auto;html=1;entryX=0.5;entryY=1;entryDx=0;entryDy=0;" edge="1" parent="WIyWlLk6GJQsqaUBKTNV-1" source="PRaoMw5m5jJZB09oyUVn-23" target="WIyWlLk6GJQsqaUBKTNV-6">
          <mxGeometry relative="1" as="geometry" />
        </mxCell>
        <mxCell id="PRaoMw5m5jJZB09oyUVn-23" value="Ersetze fehlende Daten mit Nullen" style="rounded=1;whiteSpace=wrap;html=1;" vertex="1" parent="WIyWlLk6GJQsqaUBKTNV-1">
          <mxGeometry x="320" y="790" width="290" height="30" as="geometry" />
        </mxCell>
        <mxCell id="PRaoMw5m5jJZB09oyUVn-31" style="edgeStyle=orthogonalEdgeStyle;rounded=0;orthogonalLoop=1;jettySize=auto;html=1;entryX=0.5;entryY=0;entryDx=0;entryDy=0;" edge="1" parent="WIyWlLk6GJQsqaUBKTNV-1" source="PRaoMw5m5jJZB09oyUVn-27" target="PRaoMw5m5jJZB09oyUVn-30">
          <mxGeometry relative="1" as="geometry" />
        </mxCell>
        <mxCell id="PRaoMw5m5jJZB09oyUVn-27" value="Sortiere das Dictionary Objekt mit Hilfe der extrahierten Datumsangaben" style="rounded=1;whiteSpace=wrap;html=1;" vertex="1" parent="WIyWlLk6GJQsqaUBKTNV-1">
          <mxGeometry x="149.38" y="860" width="148.75" height="60" as="geometry" />
        </mxCell>
        <mxCell id="PRaoMw5m5jJZB09oyUVn-35" style="edgeStyle=orthogonalEdgeStyle;rounded=0;orthogonalLoop=1;jettySize=auto;html=1;entryX=0;entryY=0.5;entryDx=0;entryDy=0;" edge="1" parent="WIyWlLk6GJQsqaUBKTNV-1" source="PRaoMw5m5jJZB09oyUVn-30" target="PRaoMw5m5jJZB09oyUVn-32">
          <mxGeometry relative="1" as="geometry" />
        </mxCell>
        <mxCell id="PRaoMw5m5jJZB09oyUVn-63" style="edgeStyle=orthogonalEdgeStyle;rounded=0;orthogonalLoop=1;jettySize=auto;html=1;entryX=0;entryY=0.5;entryDx=0;entryDy=0;" edge="1" parent="WIyWlLk6GJQsqaUBKTNV-1" source="PRaoMw5m5jJZB09oyUVn-30" target="PRaoMw5m5jJZB09oyUVn-64">
          <mxGeometry relative="1" as="geometry">
            <mxPoint x="100" y="1530" as="targetPoint" />
            <Array as="points">
              <mxPoint x="90" y="1030" />
              <mxPoint x="90" y="1520" />
            </Array>
          </mxGeometry>
        </mxCell>
        <mxCell id="PRaoMw5m5jJZB09oyUVn-30" value="Für jedes Objekt in der Liste" style="rhombus;whiteSpace=wrap;html=1;shadow=0;fontFamily=Helvetica;fontSize=12;align=center;strokeWidth=1;spacing=6;spacingTop=-4;" vertex="1" parent="WIyWlLk6GJQsqaUBKTNV-1">
          <mxGeometry x="144.37" y="950" width="158.75" height="160" as="geometry" />
        </mxCell>
        <mxCell id="PRaoMw5m5jJZB09oyUVn-36" style="edgeStyle=orthogonalEdgeStyle;rounded=0;orthogonalLoop=1;jettySize=auto;html=1;" edge="1" parent="WIyWlLk6GJQsqaUBKTNV-1" source="PRaoMw5m5jJZB09oyUVn-32" target="PRaoMw5m5jJZB09oyUVn-33">
          <mxGeometry relative="1" as="geometry" />
        </mxCell>
        <mxCell id="PRaoMw5m5jJZB09oyUVn-32" value="Berechne die Methode Earned Value 0/100 in Prozent und füge die Werte als zusätzliche Spalte hinzu" style="rounded=1;whiteSpace=wrap;html=1;fontSize=12;glass=0;strokeWidth=1;shadow=0;" vertex="1" parent="WIyWlLk6GJQsqaUBKTNV-1">
          <mxGeometry x="340" y="1010" width="290" height="40" as="geometry" />
        </mxCell>
        <mxCell id="PRaoMw5m5jJZB09oyUVn-37" style="edgeStyle=orthogonalEdgeStyle;rounded=0;orthogonalLoop=1;jettySize=auto;html=1;entryX=0.5;entryY=0;entryDx=0;entryDy=0;" edge="1" parent="WIyWlLk6GJQsqaUBKTNV-1" source="PRaoMw5m5jJZB09oyUVn-33" target="PRaoMw5m5jJZB09oyUVn-34">
          <mxGeometry relative="1" as="geometry" />
        </mxCell>
        <mxCell id="PRaoMw5m5jJZB09oyUVn-33" value="Berechne die Methode Earned Value 20/80 in Prozent und füge die Werte als zusätzliche Spalte hinzu" style="rounded=1;whiteSpace=wrap;html=1;fontSize=12;glass=0;strokeWidth=1;shadow=0;" vertex="1" parent="WIyWlLk6GJQsqaUBKTNV-1">
          <mxGeometry x="340" y="1070" width="290" height="40" as="geometry" />
        </mxCell>
        <mxCell id="PRaoMw5m5jJZB09oyUVn-40" style="edgeStyle=orthogonalEdgeStyle;rounded=0;orthogonalLoop=1;jettySize=auto;html=1;entryX=0.5;entryY=0;entryDx=0;entryDy=0;" edge="1" parent="WIyWlLk6GJQsqaUBKTNV-1" source="PRaoMw5m5jJZB09oyUVn-34" target="PRaoMw5m5jJZB09oyUVn-38">
          <mxGeometry relative="1" as="geometry" />
        </mxCell>
        <mxCell id="PRaoMw5m5jJZB09oyUVn-34" value="Berechne die Methode Earned Value 50/50 in Prozent und füge die Werte als zusätzliche Spalte hinzu" style="rounded=1;whiteSpace=wrap;html=1;fontSize=12;glass=0;strokeWidth=1;shadow=0;" vertex="1" parent="WIyWlLk6GJQsqaUBKTNV-1">
          <mxGeometry x="340" y="1129" width="290" height="40" as="geometry" />
        </mxCell>
        <mxCell id="PRaoMw5m5jJZB09oyUVn-43" style="edgeStyle=orthogonalEdgeStyle;rounded=0;orthogonalLoop=1;jettySize=auto;html=1;entryX=0.5;entryY=0;entryDx=0;entryDy=0;" edge="1" parent="WIyWlLk6GJQsqaUBKTNV-1" source="PRaoMw5m5jJZB09oyUVn-38" target="PRaoMw5m5jJZB09oyUVn-42">
          <mxGeometry relative="1" as="geometry" />
        </mxCell>
        <mxCell id="PRaoMw5m5jJZB09oyUVn-38" value="Lösche alle Zeilen, in denen die Spalte Estimated at completion ungleich 0 ist" style="rounded=1;whiteSpace=wrap;html=1;" vertex="1" parent="WIyWlLk6GJQsqaUBKTNV-1">
          <mxGeometry x="340" y="1190" width="290" height="60" as="geometry" />
        </mxCell>
        <mxCell id="PRaoMw5m5jJZB09oyUVn-45" style="edgeStyle=orthogonalEdgeStyle;rounded=0;orthogonalLoop=1;jettySize=auto;html=1;" edge="1" parent="WIyWlLk6GJQsqaUBKTNV-1" source="PRaoMw5m5jJZB09oyUVn-42" target="PRaoMw5m5jJZB09oyUVn-44">
          <mxGeometry relative="1" as="geometry" />
        </mxCell>
        <mxCell id="PRaoMw5m5jJZB09oyUVn-42" value="Lösche alle Zeilen, in denen die Spalte Stufe&amp;nbsp; ungleich &quot;SUM&quot; ist" style="rounded=1;whiteSpace=wrap;html=1;" vertex="1" parent="WIyWlLk6GJQsqaUBKTNV-1">
          <mxGeometry x="340" y="1270" width="290" height="40" as="geometry" />
        </mxCell>
        <mxCell id="PRaoMw5m5jJZB09oyUVn-61" style="edgeStyle=orthogonalEdgeStyle;rounded=0;orthogonalLoop=1;jettySize=auto;html=1;" edge="1" parent="WIyWlLk6GJQsqaUBKTNV-1" source="PRaoMw5m5jJZB09oyUVn-44" target="PRaoMw5m5jJZB09oyUVn-60">
          <mxGeometry relative="1" as="geometry" />
        </mxCell>
        <mxCell id="PRaoMw5m5jJZB09oyUVn-44" value="Berechne den Wert der Methoden in Euro anhand der berechneten Prozentwerte" style="rounded=1;whiteSpace=wrap;html=1;" vertex="1" parent="WIyWlLk6GJQsqaUBKTNV-1">
          <mxGeometry x="340" y="1330" width="290" height="60" as="geometry" />
        </mxCell>
        <mxCell id="PRaoMw5m5jJZB09oyUVn-62" style="edgeStyle=orthogonalEdgeStyle;rounded=0;orthogonalLoop=1;jettySize=auto;html=1;entryX=0.5;entryY=1;entryDx=0;entryDy=0;" edge="1" parent="WIyWlLk6GJQsqaUBKTNV-1" source="PRaoMw5m5jJZB09oyUVn-60" target="PRaoMw5m5jJZB09oyUVn-30">
          <mxGeometry relative="1" as="geometry" />
        </mxCell>
        <mxCell id="PRaoMw5m5jJZB09oyUVn-60" value="Summieren aller Arbeitspakte und Durchschnittsberechnung" style="rounded=1;whiteSpace=wrap;html=1;" vertex="1" parent="WIyWlLk6GJQsqaUBKTNV-1">
          <mxGeometry x="340" y="1410" width="290" height="60" as="geometry" />
        </mxCell>
        <mxCell id="PRaoMw5m5jJZB09oyUVn-66" style="edgeStyle=orthogonalEdgeStyle;rounded=0;orthogonalLoop=1;jettySize=auto;html=1;entryX=0.5;entryY=0;entryDx=0;entryDy=0;" edge="1" parent="WIyWlLk6GJQsqaUBKTNV-1" source="PRaoMw5m5jJZB09oyUVn-64" target="PRaoMw5m5jJZB09oyUVn-65">
          <mxGeometry relative="1" as="geometry" />
        </mxCell>
        <mxCell id="PRaoMw5m5jJZB09oyUVn-64" value="Abschließende Formatierung der Dataframes im Dictionary" style="rounded=1;whiteSpace=wrap;html=1;" vertex="1" parent="WIyWlLk6GJQsqaUBKTNV-1">
          <mxGeometry x="110" y="1490" width="290" height="60" as="geometry" />
        </mxCell>
        <mxCell id="PRaoMw5m5jJZB09oyUVn-65" value="Erstellen eines Diagrammes auf Basis der Daten und Ausgabe an das Betriebssystem als Excel Datei" style="rounded=1;whiteSpace=wrap;html=1;" vertex="1" parent="WIyWlLk6GJQsqaUBKTNV-1">
          <mxGeometry x="110" y="1580" width="290" height="60" as="geometry" />
        </mxCell>
      </root>
    </mxGraphModel>
  </diagram>
</mxfile>
